<?xml version="1.0" encoding="utf-8"?>
<!-- Generator: Adobe Illustrator 19.0.0, SVG Export Plug-In . SVG Version: 6.00 Build 0)  -->
<svg version="1.1" id="Layer_1" xmlns="http://www.w3.org/2000/svg" xmlns:xlink="http://www.w3.org/1999/xlink" x="0px" y="0px"
	 viewBox="-283 367.7 43.2 46.3" style="enable-background:new -283 367.7 43.2 46.3;" xml:space="preserve">
<style type="text/css">
	.st0{fill:#F6F1EA;}
</style>
<path class="st0" d="M-261.4,414c-5.4,0-10.2-1.2-13.2-3.3c-3.1-2.2-9.1-10.8-8.3-20.8v-0.1c0.1-0.5,1.7-9,21.5-9
	c19.8,0,21.5,8.6,21.5,8.9v0.1c0.7,10-5.2,18.6-8.3,20.8C-251.2,412.7-256,414-261.4,414z M-280.8,390.1
	c-1.2,11.3,6.5,17.5,8.9,19.2c2.6,1.8,5.6,2.6,10.5,2.6c4.9,0,7.8-0.7,10.5-2.5c2.4-1.7,10.2-8.2,9-19.2c-0.1-0.6-2.3-7.1-19.4-7.1
	C-278.5,383-280.7,389.6-280.8,390.1z M-261.5,396.6c-8.1,0-17.5-2.5-17.5-5.8c0-3.4,9.2-5.8,17.5-5.8c8.2,0,17.5,2.5,17.5,5.8
	C-244,394-253.3,396.6-261.5,396.6z M-277.2,390.7c0.5,1,6.7,3.3,15.8,3.3c9.1,0,15.3-2.3,15.8-3.3c-0.6-1.2-7.2-3.3-15.8-3.3
	C-270.4,387.4-276.8,389.5-277.2,390.7z"/>
<path class="st0" d="M-266.4,392.1c0,0,8.2,0.8,13.7-0.6c0,0,4.7-10.5,10.4-13.7c5.6-3.3,0-8.1,0-8.1s-2.5-2-4.6-2
	c-2.2,0-3.4,1.6-4,3.3C-251.6,372.8-255.3,381.9-266.4,392.1z"/>
</svg>
