<?xml version="1.0" encoding="utf-8"?>
<!-- Generator: Adobe Illustrator 19.0.0, SVG Export Plug-In . SVG Version: 6.00 Build 0)  -->
<svg version="1.1" id="Layer_1" xmlns="http://www.w3.org/2000/svg" xmlns:xlink="http://www.w3.org/1999/xlink" x="0px" y="0px"
	 viewBox="-288 374 34 45" style="enable-background:new -288 374 34 45;" xml:space="preserve">
<style type="text/css">
	.st0{fill:#F6F1EA;}
</style>
<g>
	<g>
		<path class="st0" d="M-271,419c-9.2,0-16.6-7.5-16.6-16.6c0-3.4,1-6.7,2.9-9.4c1.8-2.5,4.1-4.5,7-5.8V383c0-1.5-0.5-2.7-1.2-4.5
			c-0.1-0.3-0.2-0.6-0.4-1c-0.5-1.2-0.2-2,0.1-2.5c0.7-1.1,2.2-1.1,2.5-1.1h11.2c0.2,0,1.7,0,2.5,1.1c0.3,0.5,0.6,1.3,0.1,2.5
			c-0.1,0.3-0.2,0.6-0.4,1c-0.7,1.8-1.2,2.9-1.2,4.5v4.1c2.8,1.2,5.2,3.2,7,5.8c2,2.8,3,6.1,3,9.5C-254.3,411.5-261.8,419-271,419z
			 M-276.7,375.8c-0.3,0-0.8,0.1-0.9,0.3c-0.1,0.1-0.1,0.4,0.1,0.7c0.1,0.3,0.2,0.6,0.3,1c0.7,1.9,1.3,3.3,1.3,5.1v4.8
			c0,0.4-0.2,0.7-0.6,0.9c-5.7,2.2-9.3,7.7-9.3,13.8c0,8.2,6.6,14.8,14.8,14.8c8.2,0,14.8-6.6,14.8-14.8c0-6.2-3.7-11.6-9.4-13.8
			c-0.3-0.1-0.6-0.5-0.6-0.9v-4.8c0-1.9,0.5-3.2,1.3-5.1c0.1-0.3,0.2-0.6,0.3-1c0.1-0.3,0.2-0.6,0.1-0.7c-0.1-0.2-0.6-0.3-0.9-0.3
			H-276.7C-276.6,375.8-276.6,375.8-276.7,375.8z"/>
		<path class="st0" d="M-260,402.4h-22.1c0,0-2.3-0.2-1.8,2.1c0.6,2.5,2.6,10.5,12.8,10.5s12.2-8.1,12.9-10.5
			C-257.5,402.2-260,402.4-260,402.4z M-267.4,410.1c-1.6,0-2.8-1.3-2.8-2.8c0-1.6,1.3-2.8,2.8-2.8c1.6,0,2.8,1.3,2.8,2.8
			C-264.7,408.9-266,410.1-267.4,410.1z"/>
	</g>
	<path class="st0" d="M-267.4,408.7c0.8,0,1.4-0.6,1.4-1.4c0-0.8-0.6-1.4-1.4-1.4s-1.4,0.6-1.4,1.4
		C-268.8,408.1-268.2,408.7-267.4,408.7z"/>
</g>
<path class="st0" d="M-275.6,392.1c-2.2,0-4.1,1.8-4.1,4.1c0,2.2,1.8,4.1,4.1,4.1c2.2,0,4.1-1.8,4.1-4.1
	C-271.5,393.9-273.3,392.1-275.6,392.1z M-275.6,398.8c-1.4,0-2.6-1.2-2.6-2.6c0-1.4,1.2-2.6,2.6-2.6s2.6,1.2,2.6,2.6
	C-272.9,397.6-274.1,398.8-275.6,398.8z"/>
<path class="st0" d="M-271,386c-1.2,0-2.2,1-2.2,2.2s1,2.2,2.2,2.2s2.2-1,2.2-2.2S-269.8,386-271,386z M-271,389
	c-0.5,0-0.8-0.3-0.8-0.8s0.3-0.8,0.8-0.8s0.8,0.3,0.8,0.8S-270.5,389-271,389z"/>
</svg>
